# xmcd
# 
# Track frame offsets:
#     150
#     22068
#     26244
#     63279
#     70164
#     116716
#     126374
#     142868
#     153025
#     176433
#     190208
#     224749
#     238860
# 
# Disc length: 3661
# 
# Revision: 1
# Processed by: cddbd v1.5.2PL0 Copyright (c) Steve Scherf et al.
# Submitted via: BonkEnc v1.0.8
# 
DISCID=bf0e4b0d
DTITLE=Free Fall [Ken Vandermark, Havard Wiik, Ingbrigt Haker Flaten] - Amsterdam Funk
DYEAR=2004
DGENRE=Free, Avant
TTITLE0=Accidents With Ladders (for Nate McBride)
TTITLE1=Framework 4
TTITLE2=November (for Jeb Bishop)
TTITLE3=Framework 6
TTITLE4=Turn[s] (for Terrie Ex)
TTITLE5=Framework 9
TTITLE6=291 (for Jimmy Giuffre)
TTITLE7=Framework 5
TTITLE8=Lonnie
TTITLE9=Framework 3
TTITLE10=Still Life (for Willem de Kooning)
TTITLE11=Framework 10
TTITLE12=Mythologies
EXTD=YEAR: 2005
EXTT0=
EXTT1=
EXTT2=
EXTT3=
EXTT4=
EXTT5=
EXTT6=
EXTT7=
EXTT8=
EXTT9=
EXTT10=
EXTT11=
EXTT12=
PLAYORDER=
